# xmcd
#
# Track frame offsets: 
#        182
#        15795
#        24197
#        40982
#        53407
#        68057
#        82055
#        89827
#        103867
#        114342
#        125060
#        138132
#        147742
#        152677
#        162062
#        175965
#        193365
#        203157
#        207977
#
# Disc length: 3081 seconds
#
# Revision: 0
# Processed by: cddbd v1.5.2PL0 Copyright (c) Steve Scherf et al.
# Submitted via: ExactAudioCopyFreeDBPlugin 1.0
#
DISCID=090c0713
DTITLE=郭颂 - 中国名人民族歌曲宝典
DYEAR=1900
DGENRE=
TTITLE0=新货郎
TTITLE1=王二姐思夫
TTITLE2=乌苏里船歌
TTITLE3=山水醉了咱赫哲人
TTITLE4=鄂伦春人歌唱党
TTITLE5=越走越亮堂
TTITLE6=瞧情郎
TTITLE7=好一朵茉莉花
TTITLE8=串门儿
TTITLE9=看秧歌
TTITLE10=王大栓和李小双儿
TTITLE11=丢戒指
TTITLE12=顶牛
TTITLE13=大顶子山高又高
TTITLE14=月牙五更
TTITLE15=我心中的金凤凰
TTITLE16=冰雪长白有温泉
TTITLE17=打轮墩
TTITLE18=双锁山
EXTD=
EXTT0=
EXTT1=
EXTT2=
EXTT3=
EXTT4=
EXTT5=
EXTT6=
EXTT7=
EXTT8=
EXTT9=
EXTT10=
EXTT11=
EXTT12=
EXTT13=
EXTT14=
EXTT15=
EXTT16=
EXTT17=
EXTT18=
PLAYORDER=
